<svg width="24" height="28" viewBox="0 0 24 28" fill="none" xmlns="http://www.w3.org/2000/svg">
<path fill-rule="evenodd" clip-rule="evenodd" d="M11.9999 4.25C12.273 4.25 12.5244 4.3984 12.6565 4.63743L22.1827 21.8874C22.311 22.1198 22.307 22.4026 22.1721 22.6312C22.0372 22.8597 21.7916 23 21.5262 23H2.47363C2.20823 23 1.96259 22.8597 1.82771 22.6312C1.69283 22.4026 1.68879 22.1198 1.8171 21.8874L11.3434 4.63743C11.4754 4.3984 11.7269 4.25 11.9999 4.25ZM12.001 10.75C12.4152 10.75 12.751 11.0858 12.751 11.5V15.5C12.751 15.9142 12.4152 16.25 12.001 16.25C11.5868 16.25 11.251 15.9142 11.251 15.5V11.5C11.251 11.0858 11.5868 10.75 12.001 10.75ZM11.001 18.5C11.001 17.9477 11.4487 17.5 12.001 17.5C12.5533 17.5 13.001 17.9477 13.001 18.5C13.001 19.0523 12.5533 19.5 12.001 19.5C11.4487 19.5 11.001 19.0523 11.001 18.5Z" fill="#C77300"/>
</svg>
